# AST/ASF file generated using VICON BodyLanguage
# -----------------------------------------------
:version 1.10
:name VICON
:units
  mass 1.0
  length 0.45
  angle deg
:documentation
   .ast/.asf automatically generated from VICON data using
   VICON BodyBuilder and BodyLanguage model FoxedUp or BRILLIANT.MOD
:root
   order TX TY TZ RX RY RZ
   axis XYZ
   position 0 0 0  
   orientation 0 0 0 
:bonedata
  begin
     id 1 
     name lhipjoint
     direction 0.710188 -0.616876 0.339259 
     length 2.5669 
     axis 0 0 0  XYZ
  end
  begin
     id 2 
     name lfemur
     direction 0.34202 -0.939693 0  
     length 7.12796  
     axis 0 0 20  XYZ
    dof rx ry rz
    limits (-160.0 20.0)
           (-70.0 70.0)
           (-60.0 70.0)
  end
  begin
     id 3 
     name ltibia
     direction 0.34202 -0.939693 0   
     length 7.58108   
     axis 0 0 20   XYZ
    dof rx
    limits (-10.0 170.0)
  end
  begin
     id 4 
     name lfoot
     direction 0.0669471 -0.183936 0.980656   
     length 2.17365   
     axis -90 7.62852e-016 20   XYZ
    dof rx rz
    limits (-45.0 90.0)
           (-70.0 20.0)
  end
  begin
     id 5 
     name ltoes
     direction 1.53508e-011 -4.21705e-011 1   
     length 1.09427   
     axis -90 7.62852e-016 20   XYZ
    dof rx
    limits (-90.0 20.0)
  end
  begin
     id 6 
     name rhipjoint
     direction -0.700191 -0.625589 0.34405   
     length 2.53115  
     axis 0 0 0  XYZ 
  end
  begin
     id 7 
     name rfemur
     direction -0.34202 -0.939693 0   
     length 7.33006   
     axis 0 0 -20   XYZ
    dof rx ry rz
    limits (-160.0 20.0)
           (-70.0 70.0)
           (-70.0 60.0)
  end
  begin
     id 8 
     name rtibia
     direction -0.34202 -0.939693 0   
     length 7.64926   
     axis 0 0 -20   XYZ
    dof rx
    limits (-10.0 170.0)
 end
 begin
     id 9 
     name rfoot
     direction -0.0688927 -0.189281 0.979503   
     length 2.20493  
     axis -90 -7.62852e-016 -20   XYZ
    dof rx rz
    limits (-45.0 90.0)
           (-20.0 70.0)
  end
  begin
     id 10 
     name rtoes
     direction -1.53567e-011 -4.21933e-011 1   
     length 1.10919   
     axis -90 -7.62852e-016 -20   XYZ
    dof rx
    limits (-90.0 20.0)
  end
  begin
     id 11 
     name lowerback
     direction -0.0167868 0.989873 -0.140959   
     length 2.14596   
     axis 0 0 0   XYZ
    dof rx ry rz
    limits (-20.0 45.0)
           (-30.0 30.0)
           (-30.0 30.0)
  end
  begin
     id 12 
     name upperback
     direction 0.0129109 0.998033 0.0613525   
     length 2.10457   
     axis 0 0 0   XYZ
    dof rx ry rz
    limits (-20.0 45.0)
           (-30.0 30.0)
           (-30.0 30.0)
  end
  begin
     id 13 
     name thorax
     direction 0.0177047 0.991119 0.131797   
     length 2.17652   
     axis 0 0 0   XYZ
    dof rx ry rz
    limits (-20.0 45.0)
           (-30.0 30.0)
           (-30.0 30.0)
  end
  begin
     id 14 
     name lowerneck
     direction -0.0336893 0.997548 0.0613464   
     length 1.8912   
     axis 0 0 0   XYZ
    dof rx ry rz
    limits (-20.0 45.0)
           (-30.0 30.0)
           (-30.0 30.0)
  end
  begin
     id 15 
     name upperneck
     direction 0.0435909 0.997179 -0.0611028   
     length 1.8829   
     axis 0 0 0   XYZ
    dof rx ry rz
    limits (-20.0 45.0)
           (-30.0 30.0)
           (-30.0 30.0)
  end
  begin
     id 16
     name head
     direction 0.0175076 0.999444 -0.0283782  
     length 1.93197  
     axis 0 0 0   XYZ
    dof rx ry rz
    limits (-20.0 45.0)
           (-30.0 30.0)
           (-30.0 30.0)
  end
  begin
     id 17 
     name lclavicle
     direction 0.919164 0.389875 0.0559876  
     length 3.60004  
     axis 0 0 0   XYZ
    dof ry rz
    limits (-20.0 10.0)
           (0.0 20.0)
  end
  begin
     id 18 
     name lhumerus
     direction 1 -4.48958e-011 6.89191e-027   
     length 5.43301   
     axis 180 -30 -90   XYZ
    dof rx ry rz
    limits (-60.0 90.0)
           (-90.0 90.0)
           (-90.0 90.0)
  end
  begin
     id 19
     name lradius
     direction 1 -4.4897e-011 3.24727e-027   
     length 3.15936   
     axis 180 -30 -90   XYZ
    dof rx
    limits (-10.0 170.0)
  end
  begin
     id 20
     name lwrist
     direction 1 -4.4897e-011 9.00228e-027   
     length 1.57968   
     axis -6.29373e-015 90 90   XYZ
    dof ry
    limits (-180.0 0.0)
 end
  begin
     id 21 
     name lhand
     direction 1 -4.48968e-011 1.80042e-026   
     length 0.712827   
     axis -1.14882e-014 90 90   XYZ
    dof rx rz
    limits (-90.0 90.0)
           (-45.0 45.0)
  end
  begin
     id 22 
     name lfingers
     direction 1 -4.49019e-011 3.60267e-026   
     length 0.574699   
     axis -2.29769e-014 90 90   XYZ
    dof rx
    limits (0.0 90.0)
  end
  begin
     id 23
     name lthumb
     direction 0.707107 -6.3498e-011 0.707107   
     length 0.825157   
     axis -90 45 5.37419e-014   XYZ
    dof rx rz
    limits (-45.0 45.0)
           (-45.0 45.0)
  end
  begin
     id 24 
     name rclavicle
     direction -0.890334 0.455305 -0.00132111   
     length 3.51494  
     axis 0 0 0   XYZ 
    dof ry rz
    limits (-10.0 20.0)
           (-20.0 0.0)
  end
  begin
     id 25 
     name rhumerus
     direction -1 -4.48967e-011 5.07175e-028  
     length 5.34194   
     axis 180 30 90   XYZ
    dof rx ry rz
    limits (-90.0 60.0)
           (-90.0 90.0)
           (-90.0 90.0)
  end
  begin
     id 26 
     name rradius
     direction -1 -4.48955e-011 3.30467e-027   
     length 3.19351   
     axis 180 30 90   XYZ
    dof rx
    limits (-10.0 170.0)
  end
  begin
     id 27 
     name rwrist
     direction -1 -4.48968e-011 9.00208e-027   
     length 1.59676   
     axis -6.29373e-015 -90 -90   XYZ
    dof ry
    limits (-180.0 0.0)
  end
  begin
     id 28
     name rhand
     direction -1 -4.49e-011 1.80099e-026   
     length 0.743862   
     axis -1.14882e-014 -90 -90   XYZ
    dof rx rz
    limits (-90.0 90.0)
           (-45.0 45.0)
  end
  begin
     id 29
     name rfingers
     direction -1 -4.49009e-011 3.6023e-026   
     length 0.599721   
     axis -2.29769e-014 -90 -90   XYZ
    dof rx
    limits (0.0 90.0)
  end
  begin
     id 30
     name rthumb
     direction -0.707107 -6.35025e-011 0.707107   
     length 0.861083   
     axis -90 -45 -5.37419e-014   XYZ
    dof rx rz
    limits (-45.0 45.0)
           (-45.0 45.0)
  end
:hierarchy
  begin
    root lhipjoint rhipjoint lowerback
    lhipjoint lfemur
    lfemur ltibia
    ltibia lfoot
    lfoot ltoes
    rhipjoint rfemur
    rfemur rtibia
    rtibia rfoot
    rfoot rtoes
    lowerback upperback
    upperback thorax
    thorax lowerneck lclavicle rclavicle
    lowerneck upperneck
    upperneck head
    lclavicle lhumerus
    lhumerus lradius
    lradius lwrist
    lwrist lhand lthumb
    lhand lfingers
    rclavicle rhumerus
    rhumerus rradius
    rradius rwrist
    rwrist rhand rthumb
    rhand rfingers
  end

#!OML:ASF H:\Martial Arts Walks\Project 1\Capture day 1\Session 1\male.ASF
:FULLY-SPECIFIED
:DEGREES
323
root -3.90713 14.5992 -20.3975 5.80973 18.911 3.80822
lowerback 12.4184 1.10483 -8.80759
upperback -1.19174 0.226415 1.12461
thorax -8.34396 0.54473 6.16222
lowerneck 1.23748 -8.08366 -10.3761
upperneck 3.61488 -11.2077 10.655
head 2.05857 -5.60907 4.60309
rclavicle -1.83876e-014 4.77083e-015
rhumerus -16.6959 17.3154 -60.9343
rradius 85.8297
rwrist -5.6942
rhand -22.2681 -38.0878
rfingers 7.12502
rthumb 4.1499 -68.0271
lclavicle -1.83876e-014 4.77083e-015
lhumerus -28.5609 -30.9261 91.9415
lradius 104.28
lwrist 30.5996
lhand -16.0864 11.5016
lfingers 7.12502
lthumb 10.1168 41.2384
rfemur -60.1812 -17.1047 13.2909
rtibia 68.8101
rfoot -10.3893 11.5291
rtoes 1.32106
lfemur 4.35452 6.43796 -12.5356
ltibia 42.9405
lfoot -31.5228 33.1419
ltoes -17.8438
324
root -3.91057 14.5788 -20.3838 5.69152 18.8922 3.8655
lowerback 12.3809 1.15169 -8.94255
upperback -1.16391 0.269708 1.08182
thorax -8.30113 0.567726 6.18363
lowerneck 1.25609 -8.10533 -10.3743
upperneck 3.70117 -11.2441 10.6526
head 2.08464 -5.62716 4.5994
rclavicle 1.59028e-015 -1.86858e-014
rhumerus -16.845 17.3465 -61.0067
rradius 85.6721
rwrist -5.58453
rhand -22.2632 -38.0022
rfingers 7.12502
rthumb 4.15461 -67.9414
lclavicle 1.59028e-015 -1.86858e-014
lhumerus -28.4948 -30.9039 91.9352
lradius 104.21
lwrist 30.4689
lhand -15.8838 11.4016
lfingers 7.12502
lthumb 10.3123 41.1288
rfemur -60.136 -17.0832 13.1716
rtibia 69.1156
rfoot -10.7314 11.4912
rtoes 1.14478
lfemur 4.54883 6.55027 -12.5193
ltibia 42.9971
lfoot -31.5667 33.3855
ltoes -17.5817
325
root -3.91495 14.5566 -20.3717 5.52521 18.9824 3.97341
lowerback 12.414 1.17333 -9.11331
upperback -1.10883 0.267855 1.03344
thorax -8.26139 0.569478 6.22864
lowerneck 1.31785 -8.14388 -10.1919
upperneck 3.68524 -11.2887 10.4275
head 2.05145 -5.65149 4.50472
rclavicle -1.92821e-014 -1.43125e-014
rhumerus -16.9901 17.3643 -61.0873
rradius 85.5457
rwrist -5.47585
rhand -22.2434 -37.9255
rfingers 7.12502
rthumb 4.1737 -67.8644
lclavicle -1.92821e-014 -1.43125e-014
lhumerus -28.4567 -30.8891 91.9647
lradius 104.194
lwrist 30.437
lhand -16.0317 11.5116
lfingers 7.12502
lthumb 10.1695 41.2458
rfemur -60.0431 -17.223 13.0083
rtibia 69.4301
rfoot -11.0116 11.4837
rtoes 0.945172
lfemur 4.80088 6.48304 -12.5553
ltibia 43.0803
lfoot -31.7406 33.4783
ltoes -17.2614
326
root -3.91771 14.5374 -20.36 5.47374 19.036 3.99329
lowerback 12.3351 1.18161 -9.2042
upperback -1.10734 0.271673 1.01447
thorax -8.21639 0.572683 6.2585
lowerneck 1.33529 -8.14798 -10.1911
upperneck 3.74375 -11.2992 10.4215
head 2.06658 -5.65692 4.50191
rclavicle 1.70458e-014 -2.5842e-014
rhumerus -17.1586 17.4327 -61.1598
rradius 85.4558
rwrist -5.3386
rhand -22.2309 -37.993
rfingers 7.12502
rthumb 4.18577 -67.9316
lclavicle 1.70458e-014 -2.5842e-014
lhumerus -28.4968 -30.8096 92.0269
lradius 104.172
lwrist 30.3977
lhand -16.1116 11.5509
lfingers 7.12502
lthumb 10.0925 41.2889
rfemur -60.1173 -17.3633 13.0127
rtibia 69.7291
rfoot -11.1847 11.5178
rtoes 1.03214
lfemur 4.86856 6.45062 -12.5067
ltibia 43.1931
lfoot -31.8597 33.5271
ltoes -17.2021
327
root -3.92148 14.5203 -20.3481 5.41369 19.1287 4.04329
lowerback 12.2972 1.18284 -9.32603
upperback -1.0788 0.258292 0.990397
thorax -8.16246 0.567366 6.30396
lowerneck 1.17796 -8.17157 -10.158
upperneck 3.90316 -11.3258 10.3687
head 2.13721 -5.66505 4.46909
rclavicle 6.95746e-015 5.56597e-015
rhumerus -17.2871 17.4597 -61.2356
rradius 85.3745
rwrist -5.19144
rhand -22.2234 -37.8673
rfingers 7.12502
rthumb 4.19309 -67.8058
lclavicle 6.95746e-015 5.56597e-015
lhumerus -28.5036 -30.6902 92.0606
lradius 104.138
lwrist 30.3436
lhand -15.9462 11.1785
lfingers 7.12502
lthumb 10.2521 40.9086
rfemur -60.163 -17.5469 12.9858
rtibia 70.0195
rfoot -11.3192 11.5555
rtoes 1.16386
lfemur 4.92685 6.37573 -12.4691
ltibia 43.3282
lfoot -31.9638 33.5281
ltoes -17.1681
328
root -3.92599 14.5033 -20.3361 5.35424 19.2014 4.00312
lowerback 12.2292 1.18735 -9.39101
upperback -1.06701 0.262723 0.996995
thorax -8.11238 0.569673 6.34692
lowerneck 1.12149 -8.18641 -10.1701
upperneck 3.97268 -11.3469 10.3898
head 2.17106 -5.67344 4.47214
rclavicle -1.43125e-014 1.66979e-014
rhumerus -17.3958 17.4983 -61.2976
rradius 85.2931
rwrist -5.04765
rhand -22.0075 -38.0246
rfingers 7.12502
rthumb 4.40157 -67.9589
lclavicle -1.43125e-014 1.66979e-014
lhumerus -28.5523 -30.5449 92.1169
lradius 104.143
lwrist 30.4919
lhand -15.8424 11.1863
lfingers 7.12502
lthumb 10.3522 40.9115
rfemur -60.2239 -17.6635 13.051
rtibia 70.2889
rfoot -11.4726 11.5851
rtoes 1.17016
lfemur 4.9416 6.32546 -12.3284
ltibia 43.4887
lfoot -32.0739 33.487
ltoes -17.2119
329
root -3.9302 14.4888 -20.3247 5.34692 19.274 3.95354
lowerback 12.1186 1.17423 -9.44169
upperback -1.0845 0.249285 1.00742
thorax -8.06651 0.564016 6.38915
lowerneck 1.10247 -8.16921 -10.3141
upperneck 4.07282 -11.3382 10.5712
head 2.22138 -5.66754 4.5463
rclavicle 5.2181e-016 1.2921e-014
rhumerus -17.4672 17.5712 -61.3749
rradius 85.1952
rwrist -4.93803
rhand -21.9076 -38.0506
rfingers 7.12502
rthumb 4.49797 -67.9829
lclavicle 5.2181e-016 1.2921e-014
lhumerus -28.7401 -30.3281 92.2038
lradius 104.168
lwrist 30.5866
lhand -15.3893 10.7458
lfingers 7.12502
lthumb 10.7893 40.4487
rfemur -60.335 -17.7767 13.145
rtibia 70.5304
rfoot -11.5771 11.6144
rtoes 1.29208
lfemur 4.90334 6.23328 -12.2125
ltibia 43.6328
lfoot -32.1818 33.4826
ltoes -17.154
330
root -3.93456 14.4708 -20.3132 5.29602 19.375 3.96716
lowerback 12.0821 1.15591 -9.53816
upperback -1.0683 0.215292 1.00791
thorax -8.02288 0.54902 6.45096
lowerneck 1.0553 -8.18567 -10.2
upperneck 4.07699 -11.3461 10.3647
head 2.21286 -5.67146 4.46406
rclavicle 8.21726e-014 4.96962e-015
rhumerus -17.6137 17.6196 -61.4487
rradius 85.2126
rwrist -4.81769
rhand -21.6321 -38.0853
rfingers 7.12502
rthumb 4.76405 -68.0117
lclavicle 8.21726e-014 4.96962e-015
lhumerus -28.8078 -30.2223 92.2821
lradius 104.196
lwrist 30.6954
lhand -16.0026 11.2158
lfingers 7.12502
lthumb 10.1977 40.9487
rfemur -60.383 -17.9427 13.1536
rtibia 70.7734
rfoot -11.6765 11.6954
rtoes 1.55545
lfemur 4.9272 6.13986 -12.139
ltibia 43.7506
lfoot -32.2597 33.5201
ltoes -17.1755
